<svg width="66" height="66" viewBox="0 0 66 66" fill="none" xmlns="http://www.w3.org/2000/svg">
<g clip-path="url(#clip0_102_2)">
<path d="M65.3566 33.7602C65.3566 31.5169 65.1747 29.2616 64.7867 27.0547H33.66V39.7624H51.4848C50.7451 43.8609 48.3685 47.4864 44.8884 49.7903V58.0358H55.5227C61.7674 52.2882 65.3566 43.8002 65.3566 33.7602Z" fill="#4285F4"/>
<path d="M33.6599 66.0021C42.5602 66.0021 50.0659 63.0799 55.5346 58.0356L44.9004 49.7901C41.9417 51.803 38.1222 52.9428 33.672 52.9428C25.0628 52.9428 17.7632 47.1346 15.144 39.3257H4.17029V47.8258C9.77235 58.9693 21.1826 66.0021 33.6599 66.0021V66.0021Z" fill="#34A853"/>
<path d="M15.132 39.3257C13.7497 35.2272 13.7497 30.7892 15.132 26.6908V18.1907H4.17041C-0.510093 27.5153 -0.510093 38.5012 4.17041 47.8258L15.132 39.3257V39.3257Z" fill="#FBBC04"/>
<path d="M33.6599 13.0616C38.3647 12.9888 42.9118 14.7592 46.3191 18.0088L55.7407 8.5872C49.7749 2.98514 41.8569 -0.0947815 33.6599 0.00222383C21.1826 0.00222383 9.77235 7.03511 4.17029 18.1907L15.1319 26.6908C17.7389 18.8698 25.0507 13.0616 33.6599 13.0616V13.0616Z" fill="#EA4335"/>
</g>
<defs>
<clipPath id="clip0_102_2">
<rect width="66" height="66" fill="white"/>
</clipPath>
</defs>
</svg>
